<?xml version="1.0" encoding="UTF-8" standalone="no"?>
<!-- Created with Inkscape (http://www.inkscape.org/) -->

<svg
   width="110.00053mm"
   height="110.00053mm"
   viewBox="0 0 110.00052 110.00055"
   version="1.1"
   id="svg5"
   inkscape:version="1.1.1 (3bf5ae0d25, 2021-09-20)"
   sodipodi:docname="l2.svg"
   xmlns:inkscape="http://www.inkscape.org/namespaces/inkscape"
   xmlns:sodipodi="http://sodipodi.sourceforge.net/DTD/sodipodi-0.dtd"
   xmlns="http://www.w3.org/2000/svg"
   xmlns:svg="http://www.w3.org/2000/svg">
  <sodipodi:namedview
     id="namedview7"
     pagecolor="#505050"
     bordercolor="#ffffff"
     borderopacity="1"
     inkscape:pageshadow="0"
     inkscape:pageopacity="0"
     inkscape:pagecheckerboard="1"
     inkscape:document-units="mm"
     showgrid="false"
     inkscape:zoom="0.4692965"
     inkscape:cx="-212.01948"
     inkscape:cy="357.98264"
     inkscape:window-width="1500"
     inkscape:window-height="978"
     inkscape:window-x="-6"
     inkscape:window-y="-6"
     inkscape:window-maximized="1"
     inkscape:current-layer="layer1" />
  <defs
     id="defs2">
    <inkscape:path-effect
       effect="spiro"
       id="path-effect1966"
       is_visible="true"
       lpeversion="1" />
    <inkscape:path-effect
       effect="spiro"
       id="path-effect1960"
       is_visible="true"
       lpeversion="1" />
    <inkscape:path-effect
       effect="spiro"
       id="path-effect1954"
       is_visible="true"
       lpeversion="1" />
    <inkscape:path-effect
       effect="spiro"
       id="path-effect1868"
       is_visible="true"
       lpeversion="1" />
    <inkscape:path-effect
       effect="spiro"
       id="path-effect1831"
       is_visible="true"
       lpeversion="1" />
    <inkscape:path-effect
       effect="spiro"
       id="path-effect1825"
       is_visible="true"
       lpeversion="1" />
    <inkscape:path-effect
       effect="spiro"
       id="path-effect1819"
       is_visible="true"
       lpeversion="1" />
    <inkscape:path-effect
       effect="spiro"
       id="path-effect1733"
       is_visible="true"
       lpeversion="1" />
    <inkscape:path-effect
       effect="spiro"
       id="path-effect1536"
       is_visible="true"
       lpeversion="1" />
    <inkscape:path-effect
       effect="spiro"
       id="path-effect1175"
       is_visible="true"
       lpeversion="1" />
    <inkscape:path-effect
       effect="spiro"
       id="path-effect28498"
       is_visible="true"
       lpeversion="1" />
    <inkscape:path-effect
       effect="spiro"
       id="path-effect28268"
       is_visible="true"
       lpeversion="1" />
    <inkscape:path-effect
       effect="spiro"
       id="path-effect28113"
       is_visible="true"
       lpeversion="1" />
    <inkscape:path-effect
       effect="spiro"
       id="path-effect27221"
       is_visible="true"
       lpeversion="1" />
    <inkscape:path-effect
       effect="spiro"
       id="path-effect27184"
       is_visible="true"
       lpeversion="1" />
    <inkscape:path-effect
       effect="spiro"
       id="path-effect27098"
       is_visible="true"
       lpeversion="1" />
    <inkscape:path-effect
       effect="spiro"
       id="path-effect26594"
       is_visible="true"
       lpeversion="1" />
    <inkscape:path-effect
       effect="spiro"
       id="path-effect25810"
       is_visible="true"
       lpeversion="1" />
    <inkscape:path-effect
       effect="spiro"
       id="path-effect25675"
       is_visible="true"
       lpeversion="1" />
    <inkscape:path-effect
       effect="spiro"
       id="path-effect25589"
       is_visible="true"
       lpeversion="1" />
    <inkscape:path-effect
       effect="spiro"
       id="path-effect25409"
       is_visible="true"
       lpeversion="1" />
    <inkscape:path-effect
       effect="spiro"
       id="path-effect25323"
       is_visible="true"
       lpeversion="1" />
    <inkscape:path-effect
       effect="spiro"
       id="path-effect24995"
       is_visible="true"
       lpeversion="1" />
    <inkscape:path-effect
       effect="spiro"
       id="path-effect24665"
       is_visible="true"
       lpeversion="1" />
    <inkscape:path-effect
       effect="spiro"
       id="path-effect24521"
       is_visible="true"
       lpeversion="1" />
    <inkscape:path-effect
       effect="spiro"
       id="path-effect24266"
       is_visible="true"
       lpeversion="1" />
    <inkscape:path-effect
       effect="spiro"
       id="path-effect24122"
       is_visible="true"
       lpeversion="1" />
    <inkscape:path-effect
       effect="spiro"
       id="path-effect23546"
       is_visible="true"
       lpeversion="1" />
    <inkscape:path-effect
       effect="spiro"
       id="path-effect22947"
       is_visible="true"
       lpeversion="1" />
    <inkscape:path-effect
       effect="spiro"
       id="path-effect22776"
       is_visible="true"
       lpeversion="1" />
    <inkscape:path-effect
       effect="spiro"
       id="path-effect22690"
       is_visible="true"
       lpeversion="1" />
    <inkscape:path-effect
       effect="spiro"
       id="path-effect22181"
       is_visible="true"
       lpeversion="1" />
    <inkscape:path-effect
       effect="spiro"
       id="path-effect22175"
       is_visible="true"
       lpeversion="1" />
    <inkscape:path-effect
       effect="spiro"
       id="path-effect21978"
       is_visible="true"
       lpeversion="1" />
    <inkscape:path-effect
       effect="spiro"
       id="path-effect21974"
       is_visible="true"
       lpeversion="1" />
    <inkscape:path-effect
       effect="spiro"
       id="path-effect21777"
       is_visible="true"
       lpeversion="1" />
    <inkscape:path-effect
       effect="bspline"
       id="path-effect21580"
       is_visible="true"
       lpeversion="1"
       weight="33.333333"
       steps="2"
       helper_size="0"
       apply_no_weight="true"
       apply_with_weight="true"
       only_selected="false" />
    <inkscape:path-effect
       effect="bspline"
       id="path-effect4384"
       is_visible="true"
       lpeversion="1"
       weight="33.333333"
       steps="2"
       helper_size="0"
       apply_no_weight="true"
       apply_with_weight="true"
       only_selected="false" />
    <inkscape:path-effect
       effect="bspline"
       id="path-effect4107"
       is_visible="true"
       lpeversion="1"
       weight="33.333333"
       steps="2"
       helper_size="0"
       apply_no_weight="true"
       apply_with_weight="true"
       only_selected="false" />
    <inkscape:path-effect
       effect="bspline"
       id="path-effect4103"
       is_visible="true"
       lpeversion="1"
       weight="33.333333"
       steps="2"
       helper_size="0"
       apply_no_weight="true"
       apply_with_weight="true"
       only_selected="false" />
  </defs>
  <g
     inkscape:label="Layer 1"
     inkscape:groupmode="layer"
     id="layer1"
     transform="translate(-662.14838,231.63457)">
    <path
       id="rect4066"
       style="display:none;fill:none;stroke:#000000;stroke-linejoin:round"
       d="m 266.48924,18.806635 h -25 v 25 h 25 z m 25,0 h -25 v 25 h 25 z m -25,-24.9999998 h -25 V 18.806635 h 25 z m 25,0 h -25 V 18.806635 h 25 z m 25.00002,24.9999998 h -25 v 25 h 25 z m 25,0 h -25 v 25 h 25 z m -25,-24.9999998 h -25 V 18.806635 h 25 z m 25,0 h -25 V 18.806635 h 25 z M 266.48924,68.806652 h -25 v 25 h 25 z m 25,0 h -25 v 25 h 25 z m -25,-25.000007 h -25 v 25.000007 h 25 z m 25,0 h -25 v 25.000007 h 25 z m 25.00002,25.000007 h -25 v 25 h 25 z m 25,0 h -25 v 25 h 25 z m -25,-25.000007 h -25 v 25.000007 h 25 z m 25,0 h -25 v 25.000007 h 25 z" />
    <path
       id="path21972"
       style="color:#000000;fill:#ffffff;fill-opacity:1;stroke-width:0.264583;-inkscape-stroke:none"
       d="m 464.25337,-96.131704 c -6.00043,0 -11.79304,2.39981 -16.03572,6.64249 -4.24287,4.24287 -6.64197,10.03565 -6.64197,16.03571 0,6.00006 2.39911,11.79285 6.64197,16.03572 l 2.11822,2.11821 c -2.32347,6.15653 -3.58273,12.71951 -3.58273,19.34611 0,14.462275 5.88336,28.6649118 16.10961,38.8911668 10.22626,10.2262512 24.42851,16.1090952 38.89065,16.1090922 6.62661,0 13.18958,-1.259257 19.34611,-3.582725 l 2.11822,2.118215 c 4.24286,4.242868 10.03565,6.641972 16.03571,6.641972 6.00006,0 11.79284,-2.399108 16.03573,-6.641972 4.24264,-4.242671 6.64247,-10.0352712 6.64247,-16.0357142 0,-6.00044 -2.39983,-11.7930368 -6.64247,-16.0357128 l -2.11823,-2.118217 c 2.32349,-6.156545 3.58272,-12.719445 3.58272,-19.346105 0,-14.46215 -5.88277,-28.66485 -16.10909,-38.89117 -10.22633,-10.22631 -24.42902,-16.1091 -38.89117,-16.10909 -6.62665,0 -13.18954,1.25922 -19.3461,3.58273 l -2.11822,-2.11822 c -4.24268,-4.24268 -10.03529,-6.64249 -16.03571,-6.64249 z m 0,10.00042 c 3.25556,0 6.66201,1.41117 8.96431,3.71347 l 6.90707,6.90708 3.14709,-1.41646 c 5.81053,-2.61467 12.16254,-4.0261 18.48156,-4.02611 11.71777,0 23.53408,4.8944 31.81977,13.18008 8.28567,8.28567 13.18007,20.10199 13.18007,31.81976 0,6.31901 -1.41144,12.67102 -4.02611,18.481558 l -1.41645,3.147097 6.90707,6.9070688 c 2.3023,2.302307 3.71346,5.708759 3.71346,8.964311 0,3.255558 -1.41116,6.66201 -3.71346,8.9643112 -2.30212,2.302118 -5.70837,3.712953 -8.96431,3.712953 -3.25594,0 -6.6622,-1.41084 -8.96431,-3.712953 l -6.90707,-6.9070722 -3.1471,1.416452 c -5.81045,2.614596 -12.1627,4.026111 -18.48156,4.026111 -11.71776,3e-6 -23.5335,-4.894336 -31.81924,-13.180075 -8.28574,-8.2857338 -13.18059,-20.1021218 -13.18059,-31.8197618 0,-6.31885 1.41151,-12.6711 4.02611,-18.48156 l 1.41645,-3.14709 -6.90707,-6.90708 c -2.30212,-2.30211 -3.71295,-5.70837 -3.71296,-8.96431 0,-3.25594 1.41085,-6.6622 3.71296,-8.96431 2.30229,-2.30229 5.70874,-3.71347 8.96431,-3.71347 z m 37.50107,20.17707 c -7.91719,0 -15.61489,3.18876 -21.21318,8.78706 -5.5983,5.59829 -8.78706,13.29547 -8.78706,21.21266 0,7.91718 3.18876,15.616425 8.78706,21.214723 5.59829,5.5982948 13.29599,8.7855078 21.21318,8.7855078 7.91718,0 15.61435,-3.187213 21.21265,-8.7855078 5.5983,-5.598298 8.78707,-13.297543 8.78707,-21.214723 0,-7.91719 -3.18877,-15.61437 -8.78707,-21.21266 -5.5983,-5.5983 -13.29547,-8.78706 -21.21265,-8.78706 z m 0,9.9999 c 5.17277,0 10.48252,2.20138 14.14022,5.85908 3.6577,3.6577 5.85959,8.96797 5.85959,14.14074 0,5.17277 -2.20189,10.4851 -5.85959,14.142802 -3.6577,3.657701 -8.96745,5.857523 -14.14022,5.857523 -5.17277,0 -10.48511,-2.199822 -14.14281,-5.857523 -3.6577,-3.657702 -5.85752,-8.970032 -5.85752,-14.142802 0,-5.17277 2.19982,-10.48304 5.85752,-14.14074 3.6577,-3.6577 8.97004,-5.85908 14.14281,-5.85908 z" />
    <path
       id="path23544"
       style="color:#000000;fill:#ffffff;fill-opacity:1;stroke-width:0.264583;-inkscape-stroke:none"
       d="m 734.24315,-84.245138 -5.6534,5.6534 c -6.15668,-2.3236 -12.71982,-3.58273 -19.34663,-3.58272 -14.46214,0 -28.66439,5.88283 -38.89064,16.10909 -10.22626,10.22626 -16.10962,24.42889 -16.10962,38.89117 0,6.62678 1.25914,13.18995 3.58273,19.3466198 l -5.6534,5.6534 32.07091,32.0709102 5.6534,-5.6534 c 6.15667,2.32359 12.71984,3.58273 19.34662,3.58273 14.46228,-10e-6 28.66492,-5.88336 38.89117,-16.10962 10.22624,-10.2262502 16.10909,-24.4285 16.10909,-38.89064 0,-6.62681 -1.25912,-13.18995 -3.58272,-19.34663 l 5.6534,-5.6534 z m -25.00003,12.0711 c 6.31896,0 12.67105,1.41146 18.48156,4.02611 l 3.1471,1.41645 3.37137,-3.37189 17.92862,17.92914 -3.37137,3.37137 1.41645,3.1471 c 2.61465,5.81051 4.02611,12.1626 4.02611,18.48156 0,11.71776 -4.89433,23.5334998 -13.18007,31.8192398 -8.28574,8.2857402 -20.10213,13.1805902 -31.81977,13.1805902 -6.31891,10e-6 -12.67107,-1.41148 -18.48155,-4.02611 l -3.1471,-1.41645 -3.37137,3.37137 -17.92914,-17.9286202 3.37189,-3.37137 -1.41645,-3.1471 c -2.61463,-5.8104798 -4.02611,-12.1626398 -4.02611,-18.4815498 0,-11.71764 4.89485,-23.53403 13.18059,-31.81977 8.28573,-8.28574 20.10148,-13.18007 31.81924,-13.18007 z m 10e-4,14.99908 c -7.91719,0 -15.61694,3.18877 -21.21524,8.78706 -5.59829,5.5983 -8.78499,13.29754 -8.78499,21.21473 0,7.91719 3.1867,15.61436 8.78499,21.2126598 5.5983,5.59829 13.29805,8.78706 21.21524,8.78706 7.91718,0 15.61436,-3.18877 21.21266,-8.78706 5.59829,-5.5982998 8.78706,-13.2954698 8.78706,-21.2126598 0,-7.91719 -3.18877,-15.61643 -8.78706,-21.21473 -5.5983,-5.59829 -13.29548,-8.78706 -21.21266,-8.78706 z m 0,9.99991 c 5.17277,0 10.48252,2.20137 14.14022,5.85907 3.6577,3.6577 5.85959,8.97004 5.85959,14.14281 0,5.17277 -2.20189,10.48304 -5.85959,14.14074 -3.6577,3.6576998 -8.96745,5.8590698 -14.14022,5.8590698 -5.17277,0 -10.4851,-2.20137 -14.14281,-5.8590698 -3.6577,-3.6577 -5.85752,-8.96797 -5.85752,-14.14074 0,-5.17277 2.19982,-10.48511 5.85752,-14.14281 3.65771,-3.6577 8.97004,-5.85907 14.14281,-5.85907 z" />
    <path
       id="path24264"
       style="color:#000000;fill:#ffffff;fill-opacity:1;stroke-width:0.264583;-inkscape-stroke:none"
       d="m 480.12712,-232.45036 v 5.00021 3.96152 c -3.19157,2.06323 -6.18615,4.44311 -8.89093,7.14788 -10.22625,10.22626 -16.10909,24.42851 -16.10909,38.89065 0,6.6268 1.25912,13.18995 3.58273,19.34663 l -5.65341,5.6534 32.07091,32.07091 5.65341,-5.6534 c 6.15668,2.3236 12.71982,3.58272 19.34662,3.58272 6.62682,0 13.18993,-1.2591 19.34662,-3.58272 l 5.6534,5.6534 32.07092,-32.07091 -5.65341,-5.6534 c 2.32358,-6.15666 3.58273,-12.71986 3.58273,-19.34663 0,-14.46227 -5.88342,-28.66446 -16.10961,-38.89065 -2.70458,-2.70457 -5.69893,-5.08458 -8.89042,-7.14788 v -8.96173 z m 10.00043,10.00043 h 39.99962 v 4.64261 l 2.51096,1.44125 c 3.40705,1.95559 6.55251,4.34076 9.30847,7.09673 8.28581,8.2858 13.18059,20.10161 13.1806,31.81924 0,6.31886 -1.41152,12.6711 -4.02612,18.48156 l -1.41645,3.1471 3.37137,3.37137 -17.92862,17.92913 -3.37137,-3.37188 -3.14709,1.41645 c -5.81053,2.61468 -12.16254,4.02611 -18.48156,4.02611 -6.31896,0 -12.67105,-1.41146 -18.48156,-4.02611 l -3.1471,-1.41645 -3.37137,3.37137 -17.92913,-17.92862 3.37188,-3.37137 -1.41645,-3.1471 c -2.61465,-5.8105 -4.02611,-12.16259 -4.02611,-18.48156 0,-11.71776 4.89434,-23.5335 13.18008,-31.81924 2.75592,-2.75593 5.90163,-5.141 9.30899,-7.09673 l 2.51096,-1.44125 z m 19.99981,14.99908 c -7.91719,0 -15.61488,3.18876 -21.21318,8.78706 -5.5983,5.5983 -8.78706,13.29599 -8.78706,21.21318 0,7.91718 3.18876,15.61642 8.78706,21.21472 5.5983,5.5983 13.29599,8.78499 21.21318,8.78499 7.91719,0 15.61437,-3.18669 21.21266,-8.78499 5.5983,-5.5983 8.78706,-13.29754 8.78706,-21.21472 0,-7.91719 -3.18876,-15.61488 -8.78706,-21.21318 -5.59829,-5.5983 -13.29547,-8.78706 -21.21266,-8.78706 z m 0,9.99991 c 5.17277,0 10.48459,2.20188 14.14229,5.85959 3.6577,3.6577 5.85752,8.96797 5.85752,14.14074 0,5.17277 -2.19982,10.48458 -5.85752,14.14228 -3.6577,3.65771 -8.96952,5.85753 -14.14229,5.85753 -5.17277,0 -10.4851,-2.19982 -14.14281,-5.85753 -3.6577,-3.6577 -5.857,-8.96951 -5.857,-14.14228 0,-5.17277 2.1993,-10.48304 5.857,-14.14074 3.65771,-3.65771 8.97004,-5.85959 14.14281,-5.85959 z" />
    <path
       id="path24993"
       style="color:#000000;fill:#ffffff;fill-opacity:1;stroke-width:1;-inkscape-stroke:none"
       d="m 690.07743,-231.63457 -1.46451,1.46451 -26.46454,26.46453 v 26.93893 c 0,0.182 10e-4,0.20403 10e-4,0.0661 -6e-5,-0.0885 -10e-4,-0.0936 -10e-4,0.0662 v 5.00021 h 0.25632 c 1.21182,12.64448 6.84038,24.74627 15.85278,33.75866 9.69191,9.69191 22.95619,15.46899 36.6267,16.04812 l 0.19327,0.19327 h 29.14242 l 27.92902,-27.92905 v -27.07121 -0.0599 -0.006 c 3e-5,-0.0265 0,-0.0496 0,-0.0661 v -5.00022 h -0.25733 c -1.21182,-12.6444 -6.84044,-24.74581 -15.85278,-33.75814 -10.22625,-10.22626 -24.42889,-16.10961 -38.89117,-16.10961 z m 4.14238,10.00042 h 22.9278 c 11.71764,0 23.53404,4.89485 31.81976,13.18059 8.25764,8.25764 13.14614,20.02166 13.17852,31.70091 l 0.003,0.92346 v 22.12371 l -22.07101,22.071 h -20.85764 l -0.12816,-0.12764 -2.06292,-0.006 c -11.67889,-0.0328 -23.44268,-4.92129 -31.69993,-13.17853 -8.25757,-8.25757 -13.14613,-20.02219 -13.17852,-31.70142 l -0.002,-0.55398 v -22.3609 z m 22.9278,15.00012 c -7.91719,0 -15.61488,3.18876 -21.21318,8.78706 -5.5983,5.5983 -8.78706,13.29547 -8.78706,21.21266 0,7.91718 3.18876,15.61487 8.78706,21.21317 5.5983,5.5983 13.29599,8.78706 21.21318,8.78706 7.91719,0 15.61644,-3.18876 21.21473,-8.78706 5.59829,-5.5983 8.78499,-13.29599 8.78499,-21.21317 0,-7.91719 -3.1867,-15.61436 -8.78499,-21.21266 -5.59829,-5.5983 -13.29754,-8.78706 -21.21473,-8.78706 z m 0,9.9999 c 5.17277,0 10.48459,2.19983 14.14229,5.85753 3.6577,3.6577 5.85753,8.96951 5.85753,14.14229 0,5.17277 -2.19983,10.4851 -5.85753,14.1428 -3.6577,3.6577 -8.96952,5.85753 -14.14229,5.85753 -5.17277,0 -10.48304,-2.19983 -14.14074,-5.85753 -3.65771,-3.6577 -5.85907,-8.97003 -5.85907,-14.1428 0,-5.17278 2.20136,-10.48459 5.85907,-14.14229 3.6577,-3.6577 8.96797,-5.85753 14.14074,-5.85753 z" />
    <path
       style="font-variation-settings:normal;display:inline;opacity:1;fill:none;fill-opacity:1;stroke:#aad400;stroke-width:10;stroke-linecap:butt;stroke-linejoin:miter;stroke-miterlimit:4;stroke-dasharray:none;stroke-dashoffset:0;stroke-opacity:1;stop-color:#000000;stop-opacity:1"
       d="m 560.9795,-352.16531 c -6.54499,0 -13.04967,2.69433 -17.67767,7.32234 -4.62801,4.62801 -7.32233,11.13269 -7.32233,17.67768 0,6.54499 2.69433,13.04967 7.32234,17.67767 4.62801,4.62801 11.13269,7.32233 17.67768,7.32233 6.54499,0 13.04967,-2.69433 17.67767,-7.32234 4.62801,-4.62801 7.32233,-11.13269 7.32233,-17.67768 0,-6.54499 -2.69433,-13.04967 -7.32234,-17.67767 -4.62801,-4.62801 -11.13269,-7.32233 -17.67768,-7.32233 z"
       id="path25808"
       inkscape:path-effect="#path-effect25810"
       inkscape:original-d="m 560.9795,-352.16531 c -2.7e-4,-16.66694 2.6e-4,33.33361 2e-5,50.00002 -2.6e-4,16.6664 2.5e-4,-33.33308 -2e-5,-50.00002 z" />
  </g>
</svg>
