<?xml version="1.0" encoding="UTF-8"?>
<!-- Created with Inkscape (http://www.inkscape.org/) -->
<svg width=".57213in" height=".39172in" version="1.1" viewBox="0 0 14.532 9.9497" xmlns="http://www.w3.org/2000/svg">
 <g transform="translate(-35.417 -129.87)">
  <g transform="matrix(.26458 0 0 .26458 -21.39 23.953)" style="fill:#fff;shape-inside:url(#rect2960);white-space:pre" aria-label="Nigel R. Watsa">
   <path d="m260.01 419.08c-0.14588 8e-3 -0.2914 0.0227-0.43759 0.0227 0 2.278-0.93762 4.5418-2.5484 6.1526s-3.8748 2.5486-6.1528 2.5486c-0.29216 0 0.29027 0.0302 0 0l-8.7012-0.0461-8.7012 0.0461c-2.2779 0.0113-4.5418-0.93785-6.1526-2.5486s-2.5484-3.8746-2.5484-6.1526h-8.7012v8.6551c-8e-5 0.0151 0 0.0302 0 0.0461 0 2.278 0.93762 4.5418 2.5484 6.1526s3.8748 2.5486 6.1528 2.5486c2.9003 0.096 5.7995-1.1e-4 8.701-0.0461h26.103c2.278 0 4.542-0.93785 6.1528-2.5486 1.5999-1.5999 2.5353-3.8441 2.5478-6.1065l5.7e-4 -8.7012h-7.8252c-0.14551-0.0151-0.29215-0.0151-0.43831-0.0227z" style="fill:none;font-variation-settings:normal;stop-color:#000000;stroke-width:2.7175;stroke:#aad400"/>
   <path d="m260.01 419.13c-0.14588-8e-3 -0.2914-0.0227-0.43759-0.0227 0-2.278-0.93762-4.5418-2.5484-6.1526s-3.8748-2.5486-6.1528-2.5486c-0.29216 0 0.29027-0.0302 0 0l-8.7012 0.0461-8.7012-0.0461c-2.2779-0.0113-4.5418 0.93785-6.1526 2.5486s-2.5484 3.8746-2.5484 6.1526h-8.7012v-8.6551c-8e-5 -0.0151 0-0.0302 0-0.0461 0-2.278 0.93762-4.5418 2.5484-6.1526 1.6108-1.6107 3.8748-2.5486 6.1528-2.5486 2.9003-0.096 5.7995 1.2e-4 8.701 0.0461h26.103c2.278 0 4.542 0.93786 6.1528 2.5486 1.5999 1.5999 2.5353 3.8441 2.5478 6.1065l5.7e-4 8.7012h-7.8252c-0.14551 0.0151-0.29215 0.0151-0.43831 0.0227z" style="fill:none;font-variation-settings:normal;stop-color:#000000;stroke-width:2.7175;stroke:#aad400"/>
   <path d="m224.76 419.1h35.68" style="fill:#666;font-variation-settings:normal;stop-color:#000000;stroke-width:2.691;stroke:#aad400"/>
   <path d="m224.76 419.1 2.2077 6.2533 8.5392 3.2022 15.356-0.75436 6.7923-2.181 1.9088-6.5202h-34.804" style="fill:#aad400;font-variation-settings:normal;stop-color:#000000;stroke-width:0"/>
  </g>
 </g>
</svg>
