<?xml version="1.0" encoding="UTF-8"?>
<!-- Created with Inkscape (http://www.inkscape.org/) -->
<svg width=".57213in" height=".39177in" version="1.1" viewBox="0 0 14.532 9.9509" xmlns="http://www.w3.org/2000/svg">
 <g transform="translate(-42.993 -132.36)">
  <g transform="matrix(.26458 0 0 .26458 -21.39 23.953)" style="fill:#fff;shape-inside:url(#rect2960);white-space:pre" aria-label="Nigel R. Watsa">
   <path d="m288.64 428.52c-0.14589 8e-3 -0.2914 0.0227-0.43759 0.0227 0 2.278-0.93762 4.5418-2.5484 6.1526s-3.8748 2.5486-6.1528 2.5486c-0.29216 0 0.29027 0.0302 0 0l-8.7012-0.0461-8.7012 0.0461c-2.2779 0.0113-4.5418-0.93786-6.1526-2.5486s-2.5484-3.8746-2.5484-6.1526h-8.7012v8.6551c-8e-5 0.0151 0 0.0302 0 0.0461 0 2.278 0.93762 4.5418 2.5484 6.1526s3.8748 2.5486 6.1528 2.5486c2.9003 0.096 5.7995-1.1e-4 8.701-0.0461h26.103c2.278 0 4.542-0.93785 6.1528-2.5486 1.5999-1.5999 2.5353-3.8441 2.5478-6.1065l5.7e-4 -8.7012h-7.8252c-0.14551-0.0151-0.29215-0.0151-0.43831-0.0227z" style="fill:none;font-variation-settings:normal;stop-color:#000000;stroke-width:2.7175;stroke:#aad400"/>
   <path d="m253.4 411.09c-2.2779 4e-5 -4.5418 0.98396-6.1525 2.5947-1.6108 1.6108-2.5484 3.8746-2.5484 6.1526v8.7012h8.7012c0 2.278 0.93767 4.5418 2.5484 6.1526 1.6108 1.6108 3.8746 2.5486 6.1526 2.5486 8.7012-4.2e-4 0 0 8.7012-1.2e-4 2.8593 0.0488-7e-5 -0.0465 8.7011 1.2e-4 2.278 0 4.542-0.93786 6.1528-2.5486s2.5484-3.8746 2.5484-6.1526c3.8657-0.0457 3.8693-0.0431 8.7012-0.0461v-8.7012c-0.0998-2.7927-0.94866-4.5066-2.5486-6.1065-1.6108-1.6108-3.8748-2.5486-6.1528-2.5486l-8.701-0.0461h-17.402z" style="fill:none;font-variation-settings:normal;stop-color:#000000;stroke-width:2.7175;stroke:#aad400"/>
  </g>
 </g>
</svg>
