<?xml version="1.0" encoding="UTF-8"?>
<!-- Created with Inkscape (http://www.inkscape.org/) -->
<svg width="64.918mm" height="9.3133mm" version="1.1" viewBox="0 0 64.918 9.3133" xmlns="http://www.w3.org/2000/svg">
 <g transform="translate(-15.458 -135.38)">
  <g transform="matrix(.26458 0 0 .26458 -21.39 23.953)" style="fill:#fff;shape-inside:url(#rect2960);white-space:pre" aria-label="Nigel R. Watsa">
   <path d="m139.27 448.72v-27.2h5.2l9.76 17.72v-17.72h4.6v27.2h-5.2l-9.76-17.72v17.72z"/>
   <path d="m164.67 421.12h4.56v4.8h-4.56zm0 7.6h4.56v20h-4.56z"/>
   <path d="m187.23 448.72v-2.48q-0.72 0.56-2 1.12t-3.12 0.56q-2.16 0-3.84-0.76t-2.8-2.04q-1.12-1.32-1.68-3.04t-0.56-3.6q0-2 0.64-3.84 0.64-1.88 1.76-3.24 1.12-1.4 2.72-2.24t3.52-0.84q2.2 0 3.52 0.68 1.36 0.64 2 1.16v-1.44h4.24v19.6q0 3.84-2.28 5.92-2.24 2.08-6.6 2.08-4.24 0-6.8-1.8-2.56-1.76-2.56-5h4.56q0.36 1 1.2 2.08 0.84 1.12 3.52 1.12 2.4 0 3.48-1.12 1.08-1.08 1.08-2.88zm-9.6-10.24q0 2.88 1.4 4.36t3.56 1.48 3.48-1.48 1.32-4.36q0-2.68-1.28-4.2-1.28-1.56-3.52-1.56t-3.6 1.56q-1.36 1.52-1.36 4.2z"/>
   <path d="m195.43 438.88q0-2 0.64-3.92 0.68-1.92 1.88-3.36 1.24-1.48 2.96-2.36 1.72-0.92 3.8-0.92 4.16 0 6.64 2.96 2.52 2.92 2.72 8.48h-14.2q0.28 2.6 1.68 3.8 1.44 1.16 3.44 1.16 1.16 0 1.92-0.32 0.8-0.32 1.28-0.76 0.52-0.44 0.8-0.92t0.44-0.8h4.4q-0.08 1-0.64 2.28-0.56 1.24-1.6 2.36-1.04 1.08-2.68 1.84-1.64 0.72-3.88 0.72-2.16 0-3.96-0.84t-3.04-2.24-1.92-3.24q-0.68-1.88-0.68-3.92zm9.44-6.96q-1.6 0-2.88 0.92t-1.8 2.92h9.16q-0.2-1.84-1.4-2.84-1.16-1-3.08-1z"/>
   <path d="m217.75 421.52h4.56v27.2h-4.56z"/>
   <path d="m236.95 448.72v-27.2h11.28q4.4 0 6.56 2.08t2.16 5.68q0 2.28-1.36 3.84t-3.36 2.48q1.24 0.6 1.84 1.68 0.64 1.04 0.84 2.24l0.6 3.4q0.28 1.72 1.2 3.28t2.36 2.52h-6.28q-1.08-0.48-1.56-1.72-0.48-1.28-0.76-3.16l-0.44-3.08q-0.24-1.6-1.04-2.64-0.76-1.08-2.56-1.08h-4.72v11.68zm11.28-22.68h-6.52v6.48h6.4q2.04 0 2.96-0.84t0.92-2.4-1-2.4-2.76-0.84z"/>
   <path d="m260.27 443.12h5.6v5.6h-5.6z"/>
   <path d="m280.91 421.52 4.48 19.72 4.12-19.72h6.92l4.04 19.84 4.6-19.84h4.8l-6.6 27.2h-5.76l-4.64-21.44-4.56 21.44h-5.72l-6.68-27.2z"/>
   <path d="m327.79 442.84q0 0.88 0.56 1.32 0.56 0.4 1.48 0.4 0.4 0 0.8-0.04 0.44-0.08 1-0.2v4.4q-1.04 0.16-1.68 0.2t-1.16 0.04q-1.84 0-2.84-0.44-1-0.48-1.68-1.64-0.28 0.2-0.8 0.6-0.52 0.36-1.28 0.72t-1.8 0.64-2.36 0.28q-1.68 0-3.12-0.52-1.44-0.56-2.48-1.48t-1.64-2.12-0.6-2.52q0-3.4 2.6-4.88 2.64-1.52 6.76-1.52h3.84v-0.96q0-1.6-1.16-2.6-1.12-1-2.92-1-1.84 0-2.8 0.92t-0.96 2.68h-4.88q0-1.6 0.68-2.88t1.84-2.12q1.2-0.88 2.8-1.32 1.6-0.48 3.44-0.48 1.68 0 3.2 0.4 1.52 0.36 2.64 1.16 1.16 0.8 1.84 2t0.68 2.8zm-12.64 0.12q0 1.2 0.96 2.08t2.56 0.88q1.24 0 2.12-0.44 0.88-0.48 1.44-1.16 0.6-0.68 0.88-1.44t0.28-1.36v-2q-2.6-0.12-4.24 0.12-1.6 0.2-2.48 0.68t-1.2 1.16-0.32 1.48z"/>
   <path d="m334.03 421.52h4.4v7.2h2.8v4.4h-2.8v10.32q0 0.88 0.48 1.2 0.52 0.32 1.12 0.32 0.52 0 0.88-0.08 0.4-0.12 0.6-0.24v4q-0.28 0.08-1.04 0.28t-2.12 0.2q-2.28 0-3.32-1.16-1-1.16-1-2.6v-12.24h-2.4v-4.4h2.4z"/>
   <path d="m355.83 434.48q0.04-1.36-1-2.04-1.04-0.72-2.84-0.72-1.72 0-2.44 0.68-0.68 0.64-0.68 1.4 0 1.24 1.84 1.68 1.88 0.4 4.08 1 2.2 0.56 4.04 1.84 1.88 1.24 1.88 4.12 0 2.8-2.08 4.76-2.04 1.92-6.16 1.92-2.68 0-4.36-0.72t-2.6-1.76q-0.92-1.08-1.28-2.24-0.32-1.2-0.32-2.08h4.56q0.24 1.16 1.16 2.2 0.96 1 3.2 1 1.64 0 2.56-0.64t0.92-1.88q0-1.48-1.88-1.92-1.84-0.48-4.04-1-2.2-0.56-4.08-1.68-1.84-1.16-1.84-4 0-1.16 0.4-2.24 0.44-1.12 1.36-1.96 0.96-0.84 2.48-1.36t3.68-0.52q2.36 0 3.92 0.68t2.44 1.64q0.92 0.96 1.28 2.04 0.36 1.04 0.36 1.8z"/>
   <path d="m380.79 442.84q0 0.88 0.56 1.32 0.56 0.4 1.48 0.4 0.4 0 0.8-0.04 0.44-0.08 1-0.2v4.4q-1.04 0.16-1.68 0.2t-1.16 0.04q-1.84 0-2.84-0.44-1-0.48-1.68-1.64-0.28 0.2-0.8 0.6-0.52 0.36-1.28 0.72t-1.8 0.64-2.36 0.28q-1.68 0-3.12-0.52-1.44-0.56-2.48-1.48t-1.64-2.12-0.6-2.52q0-3.4 2.6-4.88 2.64-1.52 6.76-1.52h3.84v-0.96q0-1.6-1.16-2.6-1.12-1-2.92-1-1.84 0-2.8 0.92t-0.96 2.68h-4.88q0-1.6 0.68-2.88t1.84-2.12q1.2-0.88 2.8-1.32 1.6-0.48 3.44-0.48 1.68 0 3.2 0.4 1.52 0.36 2.64 1.16 1.16 0.8 1.84 2t0.68 2.8zm-12.64 0.12q0 1.2 0.96 2.08t2.56 0.88q1.24 0 2.12-0.44 0.88-0.48 1.44-1.16 0.6-0.68 0.88-1.44t0.28-1.36v-2q-2.6-0.12-4.24 0.12-1.6 0.2-2.48 0.68t-1.2 1.16-0.32 1.48z"/>
  </g>
 </g>
</svg>
